<svg fill="none" height="512" viewBox="0 0 512 512" width="512" xmlns="http://www.w3.org/2000/svg">
  <path
    d="M352.077 49.6288L350.992 51.3936L338.638 71.2869L311.819 114.512L261.915 194.947L259.703 193.488L257.185 191.823L308.596 108.952L333.178 69.3316L346.965 47.1018L347.338 46.5135L349.617 48.0132L352.077 49.6288Z"
    fill="#FD9500" />
  <path
    d="M373.669 26.7445C370.877 21.127 365.301 17.4234 359.045 17.034C352.79 16.6446 346.791 19.6191 343.328 24.8472C339.856 30.0753 339.442 36.7533 342.234 42.3625C345.026 47.9801 350.603 51.6836 356.858 52.0731C363.114 52.4625 369.112 49.488 372.575 44.2599C376.047 39.0318 376.461 32.3538 373.669 26.7445Z"
    fill="#FD9500" />
  <path
    d="M272.91 114.537C272.91 108.265 269.563 102.473 264.136 99.333C258.709 96.2012 252.014 96.2012 246.579 99.333C241.152 102.465 237.805 108.265 237.805 114.537C237.805 120.809 241.152 126.6 246.579 129.741C252.006 132.872 258.701 132.872 264.136 129.741C269.563 126.609 272.91 120.809 272.91 114.537Z"
    fill="#FD9500" />
  <path
    d="M338.224 143.478C332.797 140.346 326.103 140.346 320.667 143.478C315.24 146.61 311.893 152.409 311.893 158.681C311.893 164.954 315.24 170.745 320.667 173.885C326.094 177.017 332.789 177.017 338.224 173.885C343.651 170.753 346.998 164.954 346.998 158.681C346.998 152.409 343.651 146.618 338.224 143.478Z"
    fill="#FD9500" />
  <path
    d="M314.277 166.071L262.692 195.734L265.211 200.116L316.797 170.453L314.277 166.071Z"
    fill="#FD9500" />
  <path d="M256.952 110.317L251.901 110.48L254.378 187.187L259.43 187.024L256.952 110.317Z" fill="#FD9500" />
  <path
    d="M286.092 212.031V191.972C286.092 187.233 283.565 182.858 279.464 180.489L262.098 170.463C257.996 168.094 252.942 168.094 248.841 170.463L231.475 180.489C227.374 182.858 224.846 187.233 224.846 191.972V212.031C224.846 216.771 227.374 221.145 231.475 223.515L248.841 233.54C252.942 235.91 257.996 235.91 262.098 233.54L279.464 223.515C283.565 221.145 286.092 216.771 286.092 212.031Z"
    fill="#777779" />
  <path
    d="M316.748 52.7773C316.748 53.7053 316.566 54.5918 316.235 55.3955L316.21 55.4369L294.394 91.1388C294.394 91.1388 294.386 91.1388 294.386 91.1554C293.135 92.8539 291.13 93.9641 288.86 93.9641C286.871 93.9641 273.946 86.5155 273.946 86.5155L273.871 86.4824C268.196 83.9139 261.891 82.4805 255.254 82.4805C248.617 82.4805 242.461 83.8725 236.844 86.383C236.819 86.3913 236.802 86.3995 236.786 86.4161C236.786 86.4161 177.968 120.187 177.404 120.436C157.32 129.119 144.619 149.269 144.619 171.159V416.424C144.097 423.309 142.034 429.755 138.769 435.431C138.769 435.439 104.973 491.2 103.531 492.642C102.388 493.785 100.731 494.373 98.9911 494.373C95.3786 494.373 92.4207 491.573 92.1804 488.018C92.1804 488.018 91.7745 130.677 92.1804 128.257C94.2352 115.846 101.344 105.141 111.32 98.3305C111.32 98.3223 111.328 98.3223 111.336 98.3223C113.209 97.0463 115.172 95.9112 117.227 94.917L117.26 94.9004C117.26 94.9004 234.607 26.9848 236.463 26.0817V26.0734C242.445 23.157 249.164 21.5164 256.273 21.5164C263.382 21.5164 313.915 47.2592 313.915 47.2592C313.923 47.2675 313.931 47.2675 313.931 47.2675C315.63 48.5186 316.74 50.5237 316.74 52.7856L316.748 52.7773Z"
    fill="#FE9900" />
  <path
    d="M337.321 122.019C335.722 120.776 334.695 118.829 334.695 116.641C334.695 114.454 335.913 112.747 335.913 112.747C335.921 112.731 335.929 112.722 335.937 112.706L357.057 78.1307C357.057 78.1307 357.065 78.1224 357.065 78.1141C358.308 76.4487 360.297 75.3716 362.534 75.3716C363.23 75.3716 364.829 75.7776 365.599 76.1919C370.902 79.0338 399.909 94.6518 403.281 97.3197C403.29 97.3197 403.29 97.328 403.29 97.328C413.621 105.489 420.299 118.075 420.473 132.226C420.482 132.417 420.498 274.752 420.473 275.29C419.993 288.97 413.431 301.1 403.414 309.062C403.406 309.07 403.397 309.078 403.389 309.078C399.917 311.846 278.702 381.145 275.694 382.802C275.686 382.81 275.678 382.819 275.669 382.819C270.085 385.288 263.912 386.655 257.417 386.655C251.567 386.655 245.974 385.544 240.837 383.515C240.813 383.506 240.779 383.498 240.755 383.481C236.993 381.99 195.549 358.136 195.549 358.136C195.475 358.103 195.408 358.062 195.334 358.02C195.276 357.995 195.218 357.962 195.152 357.921C195.094 357.888 195.027 357.855 194.969 357.821C193.213 356.744 191.97 354.897 191.73 352.751V307.082C191.97 303.527 194.928 300.718 198.54 300.718C198.723 300.718 198.93 300.735 199.153 300.768C200.247 300.926 241.881 324.067 241.881 324.067C241.881 324.067 241.89 324.067 241.898 324.067C246.654 325.765 251.774 326.693 257.118 326.693C262.462 326.693 268.047 325.682 272.977 323.835L273.043 323.802L351.042 278.762C360.984 271.222 367.712 259.656 368.797 246.49V161.697C367.762 149.087 361.548 137.943 352.285 130.395C352.285 130.395 352.276 130.379 352.268 130.395L337.321 122.019Z"
    fill="#FE9900" />
</svg>
