<svg width="1024" height="1024" viewBox="0 0 1024 1024" fill="none" xmlns="http://www.w3.org/2000/svg">
<path d="M462 89.8672C492.94 72.004 531.06 72.004 562 89.8672L643.284 136.797L588.292 232.047L562 216.867C531.06 199.004 492.94 199.004 462 216.867L325.575 295.633C294.635 313.496 275.575 346.509 275.575 382.235V539.765C275.575 542.849 275.72 545.913 276 548.949V895.499C276 913.924 267.534 931.328 253.039 942.702L182.173 998.31C175.611 1003.46 166 998.783 166 990.442V612.284C165.73 609.302 165.59 606.293 165.59 603.265V318.735C165.59 283.009 184.65 249.996 215.59 232.133L462 89.8672ZM808.41 232.133C839.35 249.996 858.41 283.009 858.41 318.735V603.265C858.41 638.991 839.35 672.004 808.41 689.867L562 832.133C531.06 849.996 492.94 849.996 462 832.133L376 782.48V655.48L462 705.133C492.94 722.996 531.06 722.996 562 705.133L698.425 626.367C729.365 608.504 748.425 575.491 748.425 539.765V382.235C748.425 346.509 729.365 313.496 698.425 295.633L674.895 282.047L729.887 186.797L808.41 232.133Z" fill="#FF9900"/>
<path d="M508.125 447.644C505.944 451.165 507.031 455.788 510.552 457.969C514.074 460.15 518.697 459.063 520.878 455.541L514.501 451.592L508.125 447.644ZM709.94 136.007C728.721 147.638 753.376 141.842 765.007 123.06C776.638 104.279 770.842 79.6243 752.06 67.9931C733.279 56.3619 708.624 62.1584 696.993 80.9399C685.362 99.7214 691.158 124.376 709.94 136.007ZM514.501 451.592L520.878 455.541L737.376 105.949L731 102L724.624 98.0512L508.125 447.644L514.501 451.592Z" fill="#FF9900"/>
<path d="M512.838 444.279C508.799 445.198 506.269 449.217 507.188 453.256C508.106 457.295 512.125 459.824 516.164 458.906L514.501 451.592L512.838 444.279ZM653.996 419.87C658.895 441.411 680.329 454.903 701.87 450.004C723.411 445.105 736.903 423.671 732.004 402.13C727.105 380.589 705.671 367.097 684.13 371.996C662.589 376.895 649.097 398.329 653.996 419.87ZM514.501 451.592L516.164 458.906L694.663 418.313L693 411L691.337 403.687L512.838 444.279L514.501 451.592Z" fill="#FF9900"/>
<path d="M507.002 451.724C507.075 455.866 510.491 459.164 514.633 459.091C518.774 459.019 522.073 455.602 522 451.461L514.501 451.592L507.002 451.724ZM512.702 348.994C534.79 348.606 552.381 330.386 551.994 308.298C551.606 286.21 533.386 268.619 511.298 269.006C489.21 269.394 471.619 287.614 472.006 309.702C472.394 331.79 490.614 349.381 512.702 348.994ZM514.501 451.592L522 451.461L519.499 308.868L512 309L504.501 309.132L507.002 451.724L514.501 451.592Z" fill="#FF9900"/>
<path d="M497 393.66C506.282 388.301 517.718 388.301 527 393.66L562.818 414.34C572.1 419.699 577.818 429.603 577.818 440.321V481.679C577.818 492.397 572.1 502.301 562.818 507.66L527 528.34C517.718 533.699 506.282 533.699 497 528.34L461.182 507.66C451.9 502.301 446.182 492.397 446.182 481.679V440.321C446.182 429.603 451.9 419.699 461.182 414.34L497 393.66Z" fill="#747474"/>
</svg>
